<svg width="24" height="22" viewBox="0 0 24 22" fill="none" xmlns="http://www.w3.org/2000/svg">
    <path d="M4.19227 21.3071C3.95328 21.2699 3.72662 21.1811 3.52995 21.0476C3.29108 20.8896 3.10421 20.6712 2.99078 20.4175C2.87736 20.1637 2.84197 19.8849 2.88868 19.6131L3.3614 16.7969C2.13053 15.7739 1.1878 14.4783 0.617795 13.0264C0.0477937 11.5745 -0.131641 10.0117 0.0955648 8.47809C0.994242 3.12256 7.05778 -0.433365 13.6215 0.544299C20.1852 1.52196 24.7858 6.68109 23.8881 12.0375C22.9903 17.3939 16.9258 20.9489 10.363 19.9713C9.68576 19.8696 9.01733 19.721 8.36321 19.5266L5.18532 21.1436C4.88305 21.298 4.53539 21.3542 4.19594 21.3037M13.3311 2.27814C7.78791 1.44929 2.678 4.35459 1.93964 8.75408C1.76084 10.0258 1.92322 11.3196 2.41191 12.5166C2.9006 13.7136 3.6999 14.7755 4.73642 15.6047C4.92814 15.7685 5.07368 15.9748 5.15988 16.205C5.24608 16.4351 5.27024 16.682 5.23019 16.9232L4.82711 19.3293L7.58819 17.926C7.7756 17.8316 7.9812 17.7739 8.19273 17.7562C8.40425 17.7385 8.61737 17.7612 8.8194 17.823C9.41777 18.006 10.0304 18.1445 10.6516 18.2374C16.1957 19.0671 21.3047 16.161 22.0431 11.7623C22.7814 7.36372 18.8734 3.11045 13.3293 2.27814" fill="#475259"/>
    <path d="M6.9437 7.52817C6.70803 7.49295 6.46731 7.50191 6.23531 7.55455C6.00331 7.60718 5.78454 7.70246 5.59153 7.83494C5.39851 7.96743 5.23503 8.13451 5.11039 8.32667C4.98575 8.51883 4.90239 8.73229 4.8651 8.95487C4.82781 9.17745 4.8373 9.40478 4.89303 9.6239C4.94876 9.84301 5.04965 10.0496 5.18993 10.2319C5.3302 10.4142 5.5071 10.5686 5.71057 10.6863C5.91403 10.804 6.14004 10.8828 6.37571 10.918C6.47109 10.9329 6.5676 10.9404 6.66428 10.9405C7.12064 10.9386 7.55956 10.7746 7.89378 10.4811C8.22801 10.1876 8.43309 9.78607 8.46829 9.35634C8.50349 8.92661 8.36621 8.5001 8.08375 8.16155C7.80129 7.82301 7.39433 7.59635 6.9437 7.52817Z" fill="#475259"/>
    <path d="M12.2814 8.44599C12.0448 8.40893 11.8028 8.41645 11.5694 8.4681C11.3359 8.51976 11.1156 8.61454 10.9211 8.74697C10.7266 8.87941 10.5617 9.04688 10.436 9.23975C10.3104 9.43262 10.2264 9.64707 10.1888 9.87074C10.1513 10.0944 10.161 10.3229 10.2174 10.543C10.2738 10.7631 10.3757 10.9705 10.5173 11.1533C10.659 11.336 10.8375 11.4905 11.0426 11.6077C11.2477 11.725 11.4754 11.8028 11.7125 11.8367C11.807 11.8508 11.9026 11.8581 11.9983 11.8583C12.455 11.8574 12.8947 11.6942 13.2298 11.4011C13.5649 11.1079 13.7708 10.7064 13.8066 10.2763C13.8424 9.84626 13.7055 9.41924 13.423 9.08024C13.1405 8.74124 12.7333 8.51511 12.2823 8.44685" fill="#475259"/>
    <path d="M17.567 9.42295C17.9043 9.47346 18.2181 9.6173 18.4689 9.83627C18.7196 10.0552 18.896 10.3395 18.9757 10.6532C19.0553 10.9668 19.0348 11.2957 18.9166 11.5983C18.7983 11.9009 18.5878 12.1636 18.3115 12.3532C18.0352 12.5427 17.7055 12.6507 17.3643 12.6633C17.023 12.676 16.6855 12.5928 16.3943 12.4243C16.1031 12.2558 15.8713 12.0095 15.7284 11.7166C15.5854 11.4237 15.5375 11.0973 15.5909 10.7787C15.6264 10.5671 15.7057 10.3642 15.8242 10.1816C15.9427 9.99896 16.0981 9.84016 16.2816 9.71426C16.4651 9.58836 16.673 9.49784 16.8936 9.44785C17.1141 9.39787 17.3429 9.38941 17.567 9.42295Z" fill="#468D9B"/>
    </svg>
    