<svg width="24" height="24" viewBox="0 0 24 24" fill="none" xmlns="http://www.w3.org/2000/svg">
    <g clip-path="url(#clip0_3_1598)">
    <path d="M11.999 0C9.62573 0.000195518 7.30579 0.704124 5.33255 2.02278C3.35931 3.34143 1.82138 5.21558 0.91325 7.40825C0.00511992 9.60093 -0.23242 12.0136 0.230635 14.3413C0.693689 16.669 1.83654 18.8071 3.51471 20.4853C5.19288 22.1634 7.33098 23.3063 9.65866 23.7694C11.9863 24.2324 14.3991 23.9949 16.5918 23.0867C18.7844 22.1786 20.6586 20.6407 21.9772 18.6675C23.2959 16.6942 23.9998 14.3743 24 12.001C23.9963 8.81925 22.7308 5.76888 20.4809 3.51905C18.2311 1.26923 15.1808 0.00366288 11.999 0ZM11.999 21.7412C10.0726 21.7412 8.18943 21.1699 6.58767 20.0996C4.9859 19.0294 3.73746 17.5082 3.00025 15.7284C2.26304 13.9486 2.07018 11.9902 2.446 10.1008C2.82183 8.21136 3.74947 6.47583 5.11166 5.11364C6.47385 3.75145 8.20938 2.82379 10.0988 2.44797C11.9882 2.07214 13.9466 2.26503 15.7264 3.00224C17.5062 3.73945 19.0274 4.98787 20.0977 6.58963C21.168 8.1914 21.7392 10.0746 21.7392 12.001C21.7361 14.5833 20.7089 17.0589 18.8829 18.8849C17.0569 20.7108 14.5813 21.738 11.999 21.7412Z" fill="#434344"/>
    <path d="M11.7003 16.8972H11.633C11.4707 16.8838 11.3166 16.8199 11.1925 16.7144C11.0683 16.6089 10.9804 16.4671 10.941 16.309L10.2491 13.5213L7.46136 12.8293C7.30387 12.7901 7.16255 12.7026 7.05716 12.5792C6.95178 12.4558 6.88757 12.3025 6.87353 12.1408C6.85948 11.9791 6.89629 11.8171 6.97882 11.6773C7.06134 11.5376 7.18547 11.4271 7.33383 11.3613L14.6254 8.11986C14.7694 8.05604 14.9293 8.03733 15.0842 8.06616C15.239 8.095 15.3815 8.17005 15.4929 8.28143C15.6042 8.3928 15.6793 8.53529 15.7082 8.69013C15.737 8.84498 15.7183 9.00493 15.6545 9.14894L12.414 16.4415C12.3527 16.5791 12.2529 16.696 12.1266 16.7781C12.0003 16.8602 11.8529 16.904 11.7022 16.9041" fill="#279EAE"/>
    </g>
    <defs>
    <clipPath id="clip0_3_1598">
    <rect width="24" height="24" fill="white"/>
    </clipPath>
    </defs>
    </svg>
    